<svg width="222" height="65" viewBox="0 0 222 65" fill="none" xmlns="http://www.w3.org/2000/svg">
<path d="M82.125 41V23.75H86.125V41H82.125ZM83.975 34.825V31.325H92.875V34.825H83.975ZM83.975 27.25V23.75H93.875V27.25H83.975ZM96.4932 41V38H104.993V41H96.4932ZM96.4932 26.75V23.75H104.993V26.75H96.4932ZM98.7432 41V23.75H102.743V41H98.7432ZM108.736 41V23.75H112.736V41H108.736ZM110.586 35V31.75H114.911C115.728 31.75 116.386 31.5667 116.886 31.2C117.386 30.8333 117.636 30.2667 117.636 29.5C117.636 28.7333 117.386 28.1667 116.886 27.8C116.386 27.4333 115.728 27.25 114.911 27.25H110.586V23.75H115.286C116.503 23.75 117.595 23.9833 118.561 24.45C119.528 24.9 120.295 25.5583 120.861 26.425C121.428 27.275 121.711 28.3 121.711 29.5C121.711 30.65 121.428 31.6333 120.861 32.45C120.295 33.2667 119.528 33.9 118.561 34.35C117.595 34.7833 116.503 35 115.286 35H110.586ZM114.011 33.75H117.986L122.211 41H117.786L114.011 33.75ZM123.722 39.15L125.622 35.825C126.355 36.425 127.205 36.9167 128.172 37.3C129.138 37.6667 130.08 37.85 130.997 37.85C131.547 37.85 132.005 37.7833 132.372 37.65C132.755 37.5167 133.047 37.3417 133.247 37.125C133.447 36.9083 133.547 36.6667 133.547 36.4C133.547 36.1667 133.455 35.925 133.272 35.675C133.105 35.425 132.788 35.1667 132.322 34.9C131.872 34.6333 131.205 34.3583 130.322 34.075C128.955 33.625 127.847 33.1167 126.997 32.55C126.163 31.9667 125.555 31.3333 125.172 30.65C124.788 29.9667 124.597 29.25 124.597 28.5C124.597 27.5833 124.838 26.7417 125.322 25.975C125.822 25.2083 126.555 24.6 127.522 24.15C128.488 23.6833 129.68 23.45 131.097 23.45C132.23 23.45 133.355 23.6333 134.472 24C135.605 24.35 136.555 24.7917 137.322 25.325L135.547 28.5C134.863 28.0167 134.113 27.625 133.297 27.325C132.48 27.0083 131.638 26.85 130.772 26.85C130.072 26.85 129.538 26.9833 129.172 27.25C128.805 27.5167 128.622 27.825 128.622 28.175C128.622 28.425 128.713 28.6667 128.897 28.9C129.097 29.1333 129.422 29.3667 129.872 29.6C130.338 29.8333 130.963 30.0833 131.747 30.35C133.163 30.8167 134.305 31.3417 135.172 31.925C136.038 32.4917 136.672 33.125 137.072 33.825C137.472 34.5083 137.672 35.275 137.672 36.125C137.672 37.0417 137.413 37.8917 136.897 38.675C136.38 39.4583 135.597 40.0917 134.547 40.575C133.497 41.0583 132.172 41.3 130.572 41.3C129.788 41.3 129.005 41.2083 128.222 41.025C127.438 40.8583 126.672 40.6167 125.922 40.3C125.172 39.9833 124.438 39.6 123.722 39.15ZM139.414 27.25V23.75H152.814V27.25H139.414ZM144.114 41V23.75H148.114V41H144.114ZM160.813 32.375C160.813 30.975 161.038 29.725 161.488 28.625C161.954 27.525 162.579 26.5917 163.362 25.825C164.163 25.0583 165.071 24.475 166.088 24.075C167.121 23.6583 168.213 23.45 169.363 23.45C170.446 23.45 171.438 23.6 172.338 23.9C173.254 24.1833 174.146 24.6167 175.013 25.2L172.838 28.4C172.321 28.05 171.763 27.7667 171.163 27.55C170.563 27.3167 169.921 27.2 169.238 27.2C168.438 27.2 167.704 27.3917 167.037 27.775C166.388 28.1583 165.863 28.7333 165.463 29.5C165.079 30.2667 164.888 31.225 164.888 32.375C164.888 33.525 165.079 34.4833 165.463 35.25C165.863 36.0167 166.396 36.5917 167.063 36.975C167.729 37.3583 168.463 37.55 169.263 37.55C169.946 37.55 170.579 37.425 171.163 37.175C171.763 36.925 172.321 36.5917 172.838 36.175L175.138 39.275C174.288 39.9417 173.404 40.45 172.488 40.8C171.571 41.1333 170.546 41.3 169.413 41.3C168.263 41.3 167.163 41.1 166.112 40.7C165.079 40.2833 164.163 39.6917 163.362 38.925C162.579 38.1583 161.954 37.225 161.488 36.125C161.038 35.025 160.813 33.775 160.813 32.375ZM176.021 41L182.296 23.75H184.396L184.596 27.65L180.171 41H176.021ZM180.246 37.6V34.425H188.396V37.6H180.246ZM183.746 27.65L183.846 23.75H186.146L192.421 41H188.171L183.746 27.65ZM194.552 41V23.75H198.552V41H194.552ZM196.402 41V37.5H206.302V41H196.402ZM209.298 41V23.75H213.298V41H209.298ZM211.148 41V37.5H221.048V41H211.148Z" fill="#1D2226"/>
<rect width="65" height="65" rx="10" fill="white"/>
<rect x="36" y="10" width="7" height="45" rx="3.5" fill="#1D2226"/>
<rect x="52" y="20" width="6" height="25" rx="3" fill="#1D2226"/>
<path d="M27.5 7.02848C27.6461 3.35228 23.2593 1.62086 20.6774 4.30109L7.86398 17.1135C7.59173 17.3814 7.37522 17.7005 7.22694 18.0525C7.07865 18.4045 7.00153 18.7823 7.00002 19.1642C6.99851 19.5462 7.07264 19.9246 7.21814 20.2778C7.36363 20.6309 7.57761 20.9517 7.84773 21.2218C8.11785 21.4918 8.43877 21.7057 8.79198 21.8511C9.14518 21.9965 9.52368 22.0705 9.90564 22.0689C10.2876 22.0673 10.6655 21.9901 11.0174 21.8418C11.3694 21.6934 11.6885 21.4768 11.9564 21.2046L21.4761 11.6857L21.4761 59.1067C21.4761 59.8741 21.7132 60.5399 22.3235 61.1526C22.993 61.8247 23.6517 62.0258 24.6 62C25.484 61.976 26.0822 61.7854 26.7 61.1526C27.2993 60.5388 27.5 59.8741 27.5 59.1067L27.5 7.02848Z" fill="#177CFA"/>
</svg>
